<svg xmlns="http://www.w3.org/2000/svg" viewBox="0 0 64 64" role="img" aria-labelledby="title">
  <title id="title">White dog logo</title>
  <defs>
    <linearGradient id="dagGradient" x1="0" y1="0" x2="1" y2="1">
      <stop offset="0" stop-color="#1687ff"/>
      <stop offset="1" stop-color="#29b765"/>
    </linearGradient>
  </defs>
  <circle cx="32" cy="32" r="30" fill="url(#dagGradient)" stroke="#fff" stroke-width="3"/>
  <path fill="#fff" d="M18.8 24.4c-4.9-1.7-8.2-5.1-9.8-10.1-.5-1.5.9-2.9 2.4-2.4 4.9 1.6 8.3 4.8 10 9.4A23.4 23.4 0 0 1 32 18.8c3.8 0 7.4.9 10.6 2.5 1.7-4.6 5.1-7.8 10-9.4 1.5-.5 2.9.9 2.4 2.4-1.6 5-4.9 8.4-9.8 10.1 2.5 3.3 4 7.5 4 12.1 0 10-7.7 18.1-17.2 18.1S14.8 46.5 14.8 36.5c0-4.6 1.5-8.8 4-12.1Zm6.4 9.2a3.1 3.1 0 1 0 0-6.2 3.1 3.1 0 0 0 0 6.2Zm13.6 0a3.1 3.1 0 1 0 0-6.2 3.1 3.1 0 0 0 0 6.2ZM32 36.1c-2.2 0-4 1.4-4 3.1 0 1.3 1 2.4 2.4 2.9v1.3a1.6 1.6 0 0 0 3.2 0v-1.3c1.4-.5 2.4-1.6 2.4-2.9 0-1.7-1.8-3.1-4-3.1Zm-6 10.1a1.8 1.8 0 0 0-2.9 2.1c2.1 2.9 5.2 4.4 8.9 4.4s6.8-1.5 8.9-4.4a1.8 1.8 0 1 0-2.9-2.1c-1.4 1.9-3.4 2.9-6 2.9s-4.6-1-6-2.9Z"/>
</svg>
